<svg width="166.661255" height="28.256836" viewBox="0 0 166.661 28.2568" fill="none" xmlns="http://www.w3.org/2000/svg" xmlns:xlink="http://www.w3.org/1999/xlink">
	<defs/>
	<path id="logo" d="M19.53 7.35L14.84 7.35C14.26 5.31 12.65 4.07 10.27 4.07C6.94 4.07 4.67 6.65 4.67 11.19C4.67 15.74 6.85 18.33 10.31 18.33C13.38 18.33 15.23 16.61 15.29 13.91L10.6 13.91L10.6 10.44L19.73 10.44L19.73 13.19C19.73 18.93 15.8 22.41 10.29 22.41C4.15 22.41 0 18.13 0 11.22C0 4.16 4.43 0 10.2 0C15.13 0 18.94 3.03 19.53 7.35ZM70.6 19.49C69.97 20.85 68.6 22.38 65.96 22.38C62.23 22.38 59.32 19.43 59.32 13.96C59.32 8.33 62.36 5.54 65.95 5.54C68.69 5.54 70 7.17 70.6 8.5L70.74 8.5L70.74 0.3L75.27 0.3L75.27 22.11L70.79 22.11L70.79 19.49L70.6 19.49ZM105.94 18.28L95.46 18.28L95.46 14.64L104.58 0.3L110.35 0.3L110.35 14.58L113.06 14.58L113.06 18.28L110.35 18.28L110.35 22.11L105.94 22.11L105.94 18.28ZM100.12 14.58L106.03 14.58L106.03 5.33L105.86 5.33L100.12 14.41L100.12 14.58ZM38.55 14C38.55 19.04 35.47 22.44 30.51 22.44C25.54 22.44 22.45 19.04 22.45 14C22.45 8.92 25.54 5.54 30.51 5.54C35.47 5.54 38.55 8.92 38.55 14ZM56.96 14C56.96 19.04 53.88 22.44 48.91 22.44C43.95 22.44 40.86 19.04 40.86 14C40.86 8.92 43.95 5.54 48.91 5.54C53.88 5.54 56.96 8.92 56.96 14ZM85.64 5.54C89.77 5.54 92.2 7.4 92.6 10.42L88.45 10.67C88.22 9.62 87.28 8.75 85.71 8.75C84.3 8.75 83.2 9.39 83.2 10.37C83.2 11.16 83.76 11.68 85.28 12.01L88.24 12.61C91.42 13.26 92.97 14.68 92.97 17.05C92.97 20.27 89.93 22.44 85.69 22.44C81.35 22.44 78.69 20.5 78.26 17.38L82.73 17.14C83.01 18.47 84.08 19.16 85.7 19.16C87.28 19.16 88.34 18.47 88.36 17.5C88.34 16.68 87.69 16.16 86.27 15.87L83.43 15.31C80.23 14.67 78.69 13.08 78.7 10.63C78.69 7.47 81.45 5.54 85.64 5.54ZM148.66 14C148.66 19.04 145.57 22.44 140.61 22.44C135.64 22.44 132.55 19.04 132.55 14C132.55 8.92 135.64 5.54 140.61 5.54C145.57 5.54 148.66 8.92 148.66 14ZM125.08 23.88C124.14 26.52 122.36 28.25 118.98 28.25C117.83 28.25 116.78 28.06 116.12 27.78L117.15 24.39C118.75 24.88 119.88 24.81 120.48 23.28L120.75 22.58L114.88 5.75L119.65 5.75L123.04 17.77L123.21 17.77L126.63 5.75L131.43 5.75L125.08 23.88ZM159 18.49C160.62 18.49 162.12 17.34 162.12 15.15L162.12 5.75L166.66 5.75L166.66 22.11L162.3 22.11L162.3 19.14L162.12 19.14C161.39 21.06 159.63 22.33 157.16 22.33C153.87 22.33 151.63 20 151.62 16.17L151.62 5.75L156.16 5.75L156.16 15.36C156.17 17.29 157.28 18.49 159 18.49ZM27.06 13.96C27.06 16.82 28.23 18.92 30.53 18.92C32.78 18.92 33.95 16.82 33.95 13.96C33.95 11.11 32.78 9 30.53 9C28.23 9 27.06 11.11 27.06 13.96ZM45.47 13.96C45.47 16.82 46.64 18.92 48.94 18.92C51.18 18.92 52.36 16.82 52.36 13.96C52.36 11.11 51.18 9 48.94 9C46.64 9 45.47 11.11 45.47 13.96ZM137.17 13.96C137.17 16.82 138.34 18.92 140.63 18.92C142.88 18.92 144.05 16.82 144.05 13.96C144.05 11.11 142.88 9 140.63 9C138.34 9 137.17 11.11 137.17 13.96ZM63.95 13.93C63.95 16.79 65.17 18.77 67.4 18.77C69.58 18.77 70.84 16.85 70.84 13.93C70.84 11.01 69.6 9.15 67.4 9.15C65.15 9.15 63.95 11.1 63.95 13.93Z" fill="#FFFFFF" fill-opacity="1.000000" fill-rule="evenodd"/>
</svg>
